<svg width="1200" height="315" viewBox="0 0 1200 315" fill="none" xmlns="http://www.w3.org/2000/svg">
<g clip-path="url(#clip0_650_494)">
<mask id="mask0_650_494" style="mask-type:luminance" maskUnits="userSpaceOnUse" x="0" y="0" width="1200" height="315">
<path d="M1179 0H21C9.40202 0 0 9.40202 0 21V294C0 305.598 9.40202 315 21 315H1179C1190.6 315 1200 305.598 1200 294V21C1200 9.40202 1190.6 0 1179 0Z" fill="white"/>
</mask>
<g mask="url(#mask0_650_494)">
<path d="M1200 0H0V315H1200V0Z" fill="#443E8C"/>
<path d="M0 177C180 139 390 222 600 184C810 147 990 229 1200 177V315H0V177Z" fill="#4F48A0"/>
<path d="M0 225C210 189 450 261 690 225C900 195 1050 258 1200 222V315H0V225Z" fill="#5D55B6"/>
<path d="M0 270C240 244 510 297 780 273C975 256 1095 288 1200 268V315H0V270Z" fill="#6F65CC"/>
<path d="M54.2812 69L58.4219 57.6875H59.9062L64.0469 69H62.5625L61.4297 65.8125H56.8828L55.75 69H54.2812ZM61 64.5781L59.2031 59.5156H59.1094L57.3125 64.5781H61ZM74.5625 69H73.2188L67.0938 60.1875H66.9844V69H65.5781V57.6875H66.9375L73.0625 66.5156H73.1719V57.6875H74.5625V69ZM78.4688 69H77.0625V57.6875H78.4688V69ZM82.6562 57.6875L86.4688 67H86.6094L90.4219 57.6875H92.1094V69H90.7812V60.4531H90.6719L87.1562 69H85.9062L82.3906 60.4531H82.2969V69H80.9688V57.6875H82.6562ZM94.6094 57.6875H101.469V58.9375H96.0156V62.7188H101.109V63.9531H96.0156V67.75H101.547V69H94.6094V57.6875ZM110.547 63.9688L112.562 60.5156H114.109L111.375 64.75L114.109 69H112.578L110.547 65.7188L108.547 69H107L109.672 64.75L107 60.5156H108.547L110.547 63.9688ZM118.922 57.6875H120.344L122.703 66.8438H122.812L125.203 57.6875H126.781L129.188 66.8438H129.281L131.641 57.6875H133.062L129.969 69H128.516L126.047 60.0469H125.953L123.469 69H122.016L118.922 57.6875ZM134.562 57.6875H141.422V58.9375H135.969V62.7188H141.062V63.9531H135.969V67.75H141.5V69H134.562V57.6875ZM143.641 57.6875H147.609C148.375 57.6875 149.018 57.8177 149.539 58.0781C150.06 58.3385 150.448 58.6953 150.703 59.1484C150.964 59.6016 151.094 60.1146 151.094 60.6875C151.094 61.3646 150.924 61.8932 150.586 62.2734C150.247 62.6484 149.802 62.9115 149.25 63.0625V63.1719C149.615 63.1927 149.974 63.3177 150.328 63.5469C150.682 63.776 150.974 64.1016 151.203 64.5234C151.432 64.9401 151.547 65.4323 151.547 66C151.547 66.5885 151.411 67.1068 151.141 67.5547C150.875 68.0026 150.458 68.3568 149.891 68.6172C149.323 68.8724 148.609 69 147.75 69H143.641V57.6875ZM147.734 67.75C148.573 67.75 149.19 67.5885 149.586 67.2656C149.987 66.9427 150.188 66.5156 150.188 65.9844C150.188 65.599 150.089 65.2448 149.891 64.9219C149.698 64.5938 149.419 64.3359 149.055 64.1484C148.695 63.9557 148.281 63.8594 147.812 63.8594H145.047V67.75H147.734ZM147.562 62.6406C147.969 62.6406 148.339 62.5625 148.672 62.4062C149.005 62.2448 149.268 62.0182 149.461 61.7266C149.654 61.4297 149.75 61.0885 149.75 60.7031C149.75 60.1823 149.57 59.7578 149.211 59.4297C148.852 59.1016 148.318 58.9375 147.609 58.9375H145.047V62.6406H147.562ZM152.922 57.6875H161.453V58.9375H157.906V69H156.484V58.9375H152.922V57.6875ZM172.438 63.3438C172.438 64.5156 172.224 65.5417 171.797 66.4219C171.37 67.2969 170.776 67.9714 170.016 68.4453C169.26 68.9193 168.401 69.1562 167.438 69.1562C166.469 69.1562 165.607 68.9193 164.852 68.4453C164.096 67.9714 163.505 67.2969 163.078 66.4219C162.651 65.5417 162.438 64.5156 162.438 63.3438C162.438 62.1719 162.651 61.1484 163.078 60.2734C163.505 59.3932 164.096 58.7161 164.852 58.2422C165.607 57.7682 166.469 57.5312 167.438 57.5312C168.401 57.5312 169.26 57.7682 170.016 58.2422C170.776 58.7161 171.37 59.3932 171.797 60.2734C172.224 61.1484 172.438 62.1719 172.438 63.3438ZM171.078 63.3438C171.078 62.3958 170.919 61.5833 170.602 60.9062C170.284 60.2292 169.849 59.7161 169.297 59.3672C168.75 59.0182 168.13 58.8438 167.438 58.8438C166.745 58.8438 166.122 59.0182 165.57 59.3672C165.023 59.7161 164.591 60.2292 164.273 60.9062C163.956 61.5833 163.797 62.3958 163.797 63.3438C163.797 64.2917 163.956 65.1042 164.273 65.7812C164.591 66.4583 165.023 66.9714 165.57 67.3203C166.122 67.6693 166.745 67.8438 167.438 67.8438C168.13 67.8438 168.75 67.6693 169.297 67.3203C169.849 66.9714 170.284 66.4583 170.602 65.7812C170.919 65.1042 171.078 64.2917 171.078 63.3438ZM184.062 63.3438C184.062 64.5156 183.849 65.5417 183.422 66.4219C182.995 67.2969 182.401 67.9714 181.641 68.4453C180.885 68.9193 180.026 69.1562 179.062 69.1562C178.094 69.1562 177.232 68.9193 176.477 68.4453C175.721 67.9714 175.13 67.2969 174.703 66.4219C174.276 65.5417 174.062 64.5156 174.062 63.3438C174.062 62.1719 174.276 61.1484 174.703 60.2734C175.13 59.3932 175.721 58.7161 176.477 58.2422C177.232 57.7682 178.094 57.5312 179.062 57.5312C180.026 57.5312 180.885 57.7682 181.641 58.2422C182.401 58.7161 182.995 59.3932 183.422 60.2734C183.849 61.1484 184.062 62.1719 184.062 63.3438ZM182.703 63.3438C182.703 62.3958 182.544 61.5833 182.227 60.9062C181.909 60.2292 181.474 59.7161 180.922 59.3672C180.375 59.0182 179.755 58.8438 179.062 58.8438C178.37 58.8438 177.747 59.0182 177.195 59.3672C176.648 59.7161 176.216 60.2292 175.898 60.9062C175.581 61.5833 175.422 62.3958 175.422 63.3438C175.422 64.2917 175.581 65.1042 175.898 65.7812C176.216 66.4583 176.648 66.9714 177.195 67.3203C177.747 67.6693 178.37 67.8438 179.062 67.8438C179.755 67.8438 180.375 67.6693 180.922 67.3203C181.474 66.9714 181.909 66.4583 182.227 65.7812C182.544 65.1042 182.703 64.2917 182.703 63.3438ZM195.109 69H193.766L187.641 60.1875H187.531V69H186.125V57.6875H187.484L193.609 66.5156H193.719V57.6875H195.109V69ZM200.656 69L204.797 57.6875H206.281L210.422 69H208.938L207.805 65.8125H203.258L202.125 69H200.656ZM207.375 64.5781L205.578 59.5156H205.484L203.688 64.5781H207.375ZM211.953 57.6875H215.797C216.656 57.6875 217.375 57.8359 217.953 58.1328C218.531 58.4245 218.958 58.8333 219.234 59.3594C219.516 59.8802 219.656 60.4844 219.656 61.1719C219.656 61.9375 219.479 62.5964 219.125 63.1484C218.776 63.7005 218.25 64.099 217.547 64.3438L220.094 69H218.453L216.086 64.6016L215.812 64.6094H213.359V69H211.953V57.6875ZM215.75 63.3281C216.62 63.3281 217.255 63.1432 217.656 62.7734C218.062 62.4036 218.266 61.8698 218.266 61.1719C218.266 60.4635 218.062 59.9141 217.656 59.5234C217.25 59.1328 216.609 58.9375 215.734 58.9375H213.359V63.3281H215.75ZM229.406 61.25C229.302 60.7448 229.094 60.3125 228.781 59.9531C228.474 59.5885 228.099 59.3125 227.656 59.125C227.219 58.9375 226.75 58.8438 226.25 58.8438C225.557 58.8438 224.935 59.0182 224.383 59.3672C223.836 59.7161 223.404 60.2292 223.086 60.9062C222.768 61.5833 222.609 62.3958 222.609 63.3438C222.609 64.2917 222.768 65.1042 223.086 65.7812C223.404 66.4583 223.836 66.9714 224.383 67.3203C224.935 67.6693 225.557 67.8438 226.25 67.8438C226.75 67.8438 227.219 67.7526 227.656 67.5703C228.094 67.3828 228.466 67.1094 228.773 66.75C229.086 66.3854 229.297 65.9531 229.406 65.4531H230.812C230.677 66.2083 230.396 66.8672 229.969 67.4297C229.542 67.987 229.005 68.4141 228.359 68.7109C227.719 69.0078 227.016 69.1562 226.25 69.1562C225.281 69.1562 224.419 68.9193 223.664 68.4453C222.909 67.9714 222.318 67.2969 221.891 66.4219C221.464 65.5417 221.25 64.5156 221.25 63.3438C221.25 62.1719 221.464 61.1484 221.891 60.2734C222.318 59.3932 222.909 58.7161 223.664 58.2422C224.419 57.7682 225.281 57.5312 226.25 57.5312C227.01 57.5312 227.711 57.6797 228.352 57.9766C228.997 58.2734 229.534 58.7031 229.961 59.2656C230.393 59.8229 230.677 60.4844 230.812 61.25H229.406ZM232.781 57.6875H234.188V62.7188H240.172V57.6875H241.594V69H240.172V63.9531H234.188V69H232.781V57.6875ZM245.484 69H244.078V57.6875H245.484V69ZM251.828 67.1719H251.953L255.297 57.6875H256.781L252.641 69H251.156L247.016 57.6875H248.5L251.828 67.1719ZM258.312 57.6875H265.172V58.9375H259.719V62.7188H264.812V63.9531H259.719V67.75H265.25V69H258.312V57.6875Z" fill="#A9A3DD"/>
<path d="M61.1543 103.763H75.334V100.121H77.8477V111.562H69.4688V114.623H81.2637V116.718H55.1602V114.623H66.9551V111.562H58.6406V100.121H61.1543V103.763ZM75.334 109.531V105.761H61.1543V109.531H75.334ZM78.3633 126.998H58.5439V119.006H61.0898V124.871H78.3633V126.998ZM101.663 104.278C101.663 105.535 101.953 106.744 102.533 107.904C103.124 109.053 103.951 110.074 105.015 110.965C106.078 111.857 107.313 112.55 108.721 113.044L107.432 115.01C105.81 114.43 104.392 113.581 103.178 112.464C101.964 111.336 101.051 110.031 100.438 108.548C99.8262 110.16 98.8916 111.578 97.6348 112.802C96.3779 114.016 94.9062 114.935 93.2197 115.558L91.8662 113.592C93.2842 113.087 94.5464 112.362 95.6528 111.417C96.7593 110.471 97.6187 109.381 98.231 108.146C98.854 106.91 99.1709 105.621 99.1816 104.278V103.054H92.6396V100.991H108.108V103.054H101.663V104.278ZM114.36 106.534H118.679V108.693H114.36V116.234H111.847V98.9609H114.36V106.534ZM114.36 127.61H111.847V119.812H95.6045V117.749H114.36V127.61ZM146.587 114.913H134.76V118.297H143.396V127.224H123.674V118.297H132.278V114.913H120.483V112.818H146.587V114.913ZM144.105 101.99H139.69V108.017H144.009V110.111H123.029V108.017H127.348V101.99H122.933V99.8955H144.105V101.99ZM126.188 125.161H140.915V120.295H126.188V125.161ZM137.177 108.017V101.99H129.861V108.017H137.177ZM151.195 131.606H148.811L150.583 122.841H153.709L151.195 131.606ZM171.756 102.184H185.936V99.4443H188.449V108.854H180.006V111.69H191.865V113.753H165.762V111.69H177.524V108.854H169.242V99.4443H171.756V102.184ZM185.936 106.889V104.117H171.756V106.889H185.936ZM188.514 122.486H171.498V125.29H189.384V127.288H168.984V120.617H186.032V118.071H168.92V116.138H188.514V122.486ZM212.265 104.278C212.265 105.535 212.555 106.744 213.135 107.904C213.726 109.053 214.553 110.074 215.616 110.965C216.68 111.857 217.915 112.55 219.322 113.044L218.033 115.01C216.411 114.43 214.993 113.581 213.779 112.464C212.565 111.336 211.652 110.031 211.04 108.548C210.428 110.16 209.493 111.578 208.236 112.802C206.979 114.016 205.508 114.935 203.821 115.558L202.468 113.592C203.886 113.087 205.148 112.362 206.254 111.417C207.361 110.471 208.22 109.381 208.833 108.146C209.456 106.91 209.772 105.621 209.783 104.278V103.054H203.241V100.991H218.71V103.054H212.265V104.278ZM224.962 106.534H229.28V108.693H224.962V116.234H222.448V98.9609H224.962V106.534ZM224.962 127.61H222.448V119.812H206.206V117.749H224.962V127.61ZM257.188 114.913H245.361V118.297H253.998V127.224H234.275V118.297H242.88V114.913H231.085V112.818H257.188V114.913ZM254.707 101.99H250.292V108.017H254.61V110.111H233.631V108.017H237.949V101.99H233.534V99.8955H254.707V101.99ZM236.789 125.161H251.517V120.295H236.789V125.161ZM247.778 108.017V101.99H240.463V108.017H247.778ZM261.797 131.606H259.412L261.185 122.841H264.311L261.797 131.606ZM298.535 110.305H303.337V112.432H298.535V127.675H296.021V98.9609H298.535V110.305ZM290.994 103.859H280.134V118.361C282.809 118.361 285.145 118.286 287.143 118.136C289.141 117.985 291.177 117.717 293.25 117.33L293.572 119.521C291.456 119.908 289.377 120.166 287.336 120.295C285.295 120.424 282.809 120.488 279.876 120.488H277.62V101.765H290.994V103.859ZM315.067 106.663C315.057 108.36 315.4 110.047 316.099 111.723C316.797 113.388 317.742 114.87 318.935 116.17C320.127 117.47 321.427 118.437 322.834 119.07L321.287 121.068C319.654 120.263 318.172 119.065 316.84 117.475C315.519 115.875 314.52 114.059 313.843 112.029C313.177 114.188 312.178 116.122 310.846 117.83C309.514 119.527 308.01 120.8 306.334 121.648L304.723 119.521C306.13 118.866 307.43 117.873 308.622 116.541C309.814 115.198 310.765 113.662 311.474 111.932C312.183 110.192 312.543 108.436 312.554 106.663V101.442H315.067V106.663ZM328.506 127.675H325.96V98.9609H328.506V127.675ZM367.919 123.937H341.687V121.842H353.481V115.654H344.78V100.991H347.326V106.18H362.215V100.991H364.696V115.654H355.963V121.842H367.919V123.937ZM362.215 113.592V108.242H347.326V113.592H362.215ZM393.185 104.729V105.084C393.163 107.447 393.088 109.569 392.959 111.449C392.841 113.318 392.562 115.482 392.121 117.942L389.543 117.652C389.887 115.955 390.134 114.354 390.284 112.851C390.445 111.347 390.542 110.009 390.574 108.838C390.617 107.667 390.639 106.298 390.639 104.729V103.956H372.979V101.861H393.185V104.729ZM396.311 123.55H370.207V121.455H380.455V111.207H382.937V121.455H396.311V123.55ZM430.664 114.913H428.15V98.9932H430.664V114.913ZM417.161 102.86C417.15 104.16 417.457 105.406 418.08 106.599C418.703 107.791 419.567 108.838 420.674 109.741C421.791 110.643 423.059 111.325 424.477 111.787L423.252 113.785C421.555 113.216 420.067 112.356 418.789 111.207C417.51 110.058 416.543 108.709 415.888 107.163C415.254 108.817 414.288 110.272 412.988 111.529C411.699 112.775 410.2 113.699 408.492 114.301L407.203 112.303C408.632 111.798 409.905 111.067 411.022 110.111C412.139 109.155 413.009 108.049 413.632 106.792C414.266 105.535 414.583 104.225 414.583 102.86V100.057H417.161V102.86ZM430.857 118.684H426.894V125.161H431.147V127.224H411.328V125.161H415.614V118.684H411.586V116.621H430.857V118.684ZM424.38 125.161V118.684H418.096V125.161H424.38ZM461.634 116.138H435.53V114.075H461.634V116.138ZM458.733 126.998H438.914V118.651H441.46V124.871H458.733V126.998ZM448.582 99.9922C450.623 99.9814 452.406 100.202 453.932 100.653C455.457 101.104 456.633 101.759 457.46 102.619C458.288 103.467 458.701 104.482 458.701 105.664C458.701 106.846 458.288 107.866 457.46 108.726C456.633 109.574 455.457 110.229 453.932 110.691C452.406 111.143 450.623 111.368 448.582 111.368C446.52 111.368 444.726 111.143 443.2 110.691C441.675 110.229 440.499 109.574 439.671 108.726C438.844 107.866 438.431 106.846 438.431 105.664C438.431 104.482 438.844 103.467 439.671 102.619C440.499 101.759 441.675 101.104 443.2 100.653C444.726 100.202 446.52 99.9814 448.582 99.9922ZM448.582 102.022C447.057 102.022 445.725 102.173 444.586 102.474C443.447 102.764 442.566 103.183 441.943 103.73C441.331 104.278 441.03 104.923 441.041 105.664C441.03 106.405 441.331 107.05 441.943 107.598C442.566 108.146 443.447 108.57 444.586 108.871C445.725 109.161 447.057 109.306 448.582 109.306C450.097 109.306 451.423 109.161 452.562 108.871C453.701 108.57 454.576 108.146 455.188 107.598C455.812 107.05 456.123 106.405 456.123 105.664C456.123 104.923 455.812 104.278 455.188 103.73C454.576 103.183 453.701 102.764 452.562 102.474C451.423 102.173 450.097 102.022 448.582 102.022ZM482.033 104.278C482.033 105.535 482.323 106.744 482.903 107.904C483.494 109.053 484.321 110.074 485.385 110.965C486.448 111.857 487.684 112.55 489.091 113.044L487.802 115.01C486.18 114.43 484.762 113.581 483.548 112.464C482.334 111.336 481.421 110.031 480.809 108.548C480.196 110.16 479.262 111.578 478.005 112.802C476.748 114.016 475.276 114.935 473.59 115.558L472.236 113.592C473.654 113.087 474.917 112.362 476.023 111.417C477.129 110.471 477.989 109.381 478.601 108.146C479.224 106.91 479.541 105.621 479.552 104.278V103.054H473.01V100.991H488.479V103.054H482.033V104.278ZM494.73 106.534H499.049V108.693H494.73V116.234H492.217V98.9609H494.73V106.534ZM494.73 127.61H492.217V119.812H475.975V117.749H494.73V127.61ZM526.957 114.913H515.13V118.297H523.767V127.224H504.044V118.297H512.648V114.913H500.854V112.818H526.957V114.913ZM524.476 101.99H520.061V108.017H524.379V110.111H503.399V108.017H507.718V101.99H503.303V99.8955H524.476V101.99ZM506.558 125.161H521.285V120.295H506.558V125.161ZM517.547 108.017V101.99H510.231V108.017H517.547Z" fill="#F5F4FB"/>
<path d="M78.9111 168.005H76.3652V157.016H70.4678V154.921H76.3652V146.993H78.9111V168.005ZM79.7168 174.998H60.5098V166.104H63.0557V172.871H79.7168V174.998ZM65.1182 152.891C65.1182 154.115 65.4136 155.313 66.0044 156.484C66.606 157.644 67.4385 158.675 68.502 159.578C69.5762 160.48 70.8008 161.162 72.1758 161.624L70.8545 163.654C69.2539 163.074 67.8467 162.215 66.6328 161.076C65.4297 159.927 64.5166 158.605 63.8936 157.112C63.2705 158.767 62.3252 160.228 61.0576 161.495C59.79 162.752 58.3076 163.697 56.6104 164.331L55.2891 162.269C56.6855 161.774 57.937 161.055 59.0435 160.109C60.1499 159.153 61.0146 158.052 61.6377 156.806C62.2607 155.549 62.5723 154.244 62.5723 152.891V151.408H56.0947V149.313H71.5312V151.408H65.1182V152.891ZM109.881 166.039H97.9248V175.61H95.4434V166.039H83.6484V163.977H109.881V166.039ZM89.5137 152.117H103.951V148.153H106.497V160.496H87V148.153H89.5137V152.117ZM103.951 158.434V154.18H89.5137V158.434H103.951ZM119.903 173L128.443 149.668H131.505L140.045 173H136.983L134.647 166.426H125.269L122.933 173H119.903ZM133.761 163.88L130.055 153.438H129.861L126.155 163.88H133.761ZM143.203 149.668H146.104V170.422H156.932V173H143.203V149.668ZM160.799 149.668H163.699V170.422H174.527V173H160.799V149.668ZM178.395 149.668H186.58C188.159 149.668 189.486 149.937 190.56 150.474C191.634 151.011 192.435 151.747 192.961 152.681C193.498 153.616 193.767 154.674 193.767 155.855C193.767 157.252 193.417 158.342 192.719 159.126C192.021 159.9 191.103 160.442 189.964 160.754V160.979C190.716 161.022 191.457 161.28 192.188 161.753C192.918 162.226 193.52 162.897 193.992 163.767C194.465 164.626 194.701 165.642 194.701 166.812C194.701 168.026 194.422 169.095 193.863 170.019C193.315 170.943 192.456 171.673 191.285 172.21C190.114 172.737 188.643 173 186.87 173H178.395V149.668ZM186.838 170.422C188.567 170.422 189.84 170.089 190.657 169.423C191.484 168.757 191.897 167.876 191.897 166.78C191.897 165.985 191.693 165.255 191.285 164.589C190.888 163.912 190.313 163.38 189.561 162.994C188.82 162.596 187.966 162.397 186.999 162.397H181.295V170.422H186.838ZM186.483 159.884C187.321 159.884 188.084 159.723 188.771 159.4C189.459 159.067 190.001 158.6 190.399 157.999C190.796 157.386 190.995 156.683 190.995 155.888C190.995 154.813 190.625 153.938 189.883 153.261C189.142 152.584 188.041 152.246 186.58 152.246H181.295V159.884H186.483ZM198.826 149.668H201.727V170.422H212.555V173H198.826V149.668ZM234.598 149.668V165.104C234.598 166.694 234.222 168.123 233.47 169.391C232.718 170.647 231.654 171.636 230.279 172.355C228.904 173.064 227.314 173.419 225.51 173.419C223.705 173.419 222.115 173.064 220.74 172.355C219.365 171.636 218.302 170.647 217.55 169.391C216.798 168.123 216.422 166.694 216.422 165.104V149.668H219.322V164.879C219.322 166.007 219.569 167.011 220.063 167.892C220.568 168.773 221.288 169.466 222.223 169.971C223.157 170.465 224.253 170.712 225.51 170.712C226.777 170.712 227.873 170.465 228.797 169.971C229.731 169.466 230.446 168.773 230.94 167.892C231.445 167.011 231.697 166.007 231.697 164.879V149.668H234.598ZM262.893 175.61H260.443V146.961H262.893V175.61ZM257.124 174.16H254.707V160.238H251.017C250.931 162.086 250.625 163.692 250.099 165.056C249.572 166.41 248.858 167.457 247.956 168.198C247.053 168.929 246.017 169.294 244.846 169.294C243.61 169.294 242.525 168.891 241.591 168.085C240.667 167.269 239.953 166.109 239.448 164.605C238.943 163.101 238.69 161.345 238.69 159.336C238.69 157.327 238.943 155.571 239.448 154.067C239.953 152.563 240.667 151.408 241.591 150.603C242.525 149.786 243.61 149.378 244.846 149.378C245.995 149.378 247.016 149.732 247.907 150.441C248.799 151.15 249.508 152.166 250.034 153.487C250.571 154.808 250.894 156.36 251.001 158.144H254.707V147.573H257.124V174.16ZM244.846 151.763C244.072 151.763 243.401 152.069 242.832 152.681C242.262 153.293 241.822 154.174 241.51 155.324C241.209 156.462 241.064 157.8 241.075 159.336C241.064 160.872 241.209 162.209 241.51 163.348C241.822 164.487 242.262 165.362 242.832 165.975C243.412 166.587 244.083 166.888 244.846 166.877C245.608 166.888 246.274 166.587 246.844 165.975C247.424 165.362 247.87 164.487 248.181 163.348C248.493 162.209 248.648 160.872 248.648 159.336C248.648 157.789 248.493 156.446 248.181 155.308C247.87 154.169 247.429 153.293 246.86 152.681C246.291 152.069 245.619 151.763 244.846 151.763ZM301.371 171.937H275.139V169.81H286.934V162.816H278.232V149.378H298.116V162.816H289.415V169.81H301.371V171.937ZM280.714 160.786H295.667V151.408H280.714V160.786ZM311.329 149.185C312.736 149.195 313.982 149.614 315.067 150.441C316.163 151.258 317.017 152.418 317.629 153.922C318.252 155.426 318.569 157.177 318.58 159.175C318.569 161.173 318.252 162.924 317.629 164.428C317.017 165.932 316.163 167.092 315.067 167.908C313.972 168.725 312.726 169.133 311.329 169.133C309.922 169.133 308.67 168.725 307.575 167.908C306.479 167.092 305.625 165.932 305.013 164.428C304.411 162.924 304.11 161.173 304.11 159.175C304.11 157.177 304.411 155.426 305.013 153.922C305.625 152.418 306.479 151.258 307.575 150.441C308.67 149.614 309.922 149.195 311.329 149.185ZM311.329 151.44C310.384 151.451 309.546 151.779 308.815 152.423C308.085 153.057 307.516 153.959 307.107 155.13C306.699 156.291 306.495 157.639 306.495 159.175C306.495 160.711 306.699 162.064 307.107 163.235C307.516 164.396 308.085 165.292 308.815 165.926C309.557 166.56 310.395 166.877 311.329 166.877C312.274 166.877 313.107 166.56 313.827 165.926C314.557 165.292 315.121 164.396 315.519 163.235C315.927 162.064 316.131 160.711 316.131 159.175C316.131 157.639 315.927 156.291 315.519 155.13C315.121 153.959 314.557 153.057 313.827 152.423C313.107 151.779 312.274 151.451 311.329 151.44ZM325.831 158.401H330.633V160.593H325.831V175.61H323.317V146.961H325.831V158.401ZM355.028 159.723H335.789V148.669H354.642V150.764H338.367V157.692H355.028V159.723ZM358.38 165.588H346.424V175.514H343.942V165.588H332.147V163.525H358.38V165.588ZM369.208 155.114C369.208 156.64 369.45 158.165 369.933 159.69C370.417 161.216 371.109 162.607 372.012 163.864C372.925 165.121 373.999 166.114 375.234 166.845L373.784 168.811C372.441 167.994 371.276 166.872 370.288 165.443C369.31 164.003 368.558 162.387 368.032 160.593C367.495 162.526 366.705 164.267 365.663 165.813C364.621 167.36 363.396 168.563 361.989 169.423L360.378 167.521C361.667 166.77 362.795 165.744 363.762 164.444C364.729 163.133 365.47 161.678 365.985 160.077C366.501 158.466 366.759 156.844 366.759 155.211V149.668H369.208V155.114ZM385.257 175.61H382.808V146.961H385.257V175.61ZM379.327 174.16H376.942V159.4H372.076V157.241H376.942V147.573H379.327V174.16ZM415.453 171.937H389.221V169.81H395.73V162.075C394.484 161.431 393.518 160.604 392.83 159.594C392.143 158.573 391.799 157.424 391.799 156.146C391.799 154.685 392.245 153.401 393.136 152.294C394.028 151.177 395.263 150.312 396.842 149.7C398.432 149.088 400.242 148.776 402.272 148.766C404.303 148.776 406.107 149.088 407.687 149.7C409.276 150.312 410.517 151.177 411.409 152.294C412.3 153.401 412.746 154.685 412.746 156.146C412.746 157.402 412.413 158.536 411.747 159.545C411.081 160.544 410.146 161.366 408.943 162.011V169.81H415.453V171.937ZM402.272 150.86C400.715 150.85 399.329 151.064 398.115 151.505C396.901 151.945 395.951 152.568 395.263 153.374C394.586 154.169 394.248 155.093 394.248 156.146C394.248 157.198 394.586 158.133 395.263 158.949C395.951 159.755 396.901 160.383 398.115 160.834C399.329 161.275 400.715 161.495 402.272 161.495C403.819 161.495 405.2 161.27 406.414 160.818C407.627 160.367 408.578 159.739 409.266 158.933C409.953 158.127 410.297 157.198 410.297 156.146C410.297 155.093 409.953 154.169 409.266 153.374C408.578 152.568 407.627 151.945 406.414 151.505C405.2 151.064 403.819 150.85 402.272 150.86ZM406.397 169.81V162.994C405.119 163.327 403.744 163.493 402.272 163.493C400.79 163.493 399.437 163.332 398.212 163.01V169.81H406.397Z" fill="#F5F4FB"/>
<path d="M67.916 217.642H58.0078V218.922H67.5264V219.924H58.0078V221.278H68.1016V222.317H56.542V216.584H67.916V217.642ZM68.8252 208.346H55.4473V207.27H61.459V205.748H62.9062V207.27H68.8252V208.346ZM62.1826 209.032C63.9268 209.032 65.2534 209.221 66.1626 209.598C67.0718 209.969 67.5264 210.523 67.5264 211.259C67.5264 211.995 67.0718 212.551 66.1626 212.929C65.2534 213.3 63.9268 213.485 62.1826 213.485C60.4323 213.485 59.0994 213.3 58.1841 212.929C57.2749 212.551 56.8203 211.995 56.8203 211.259C56.8203 210.523 57.2749 209.969 58.1841 209.598C59.0994 209.221 60.4323 209.032 62.1826 209.032ZM62.1826 210.053C60.9271 210.053 59.9777 210.155 59.3345 210.359C58.6912 210.563 58.3727 210.863 58.3789 211.259C58.3727 211.655 58.6912 211.955 59.3345 212.159C59.9777 212.363 60.9271 212.465 62.1826 212.465C63.4258 212.465 64.3721 212.363 65.0215 212.159C65.6709 211.955 65.9987 211.655 66.0049 211.259C65.9987 210.863 65.6709 210.563 65.0215 210.359C64.3721 210.155 63.4258 210.053 62.1826 210.053ZM69.6973 215.526H54.668V214.413H69.6973V215.526ZM75.5234 207.288C76.2656 207.294 76.9305 207.501 77.5181 207.91C78.1118 208.318 78.5911 208.899 78.9561 209.654C79.321 210.408 79.5405 211.296 79.6147 212.316H83.3164V206.008H84.7637V222.54H83.3164V213.522H79.6333C79.5776 214.586 79.3704 215.514 79.0117 216.306C78.653 217.097 78.1706 217.707 77.5645 218.133C76.9645 218.56 76.2842 218.773 75.5234 218.773C74.7194 218.773 74.002 218.538 73.3711 218.068C72.7464 217.598 72.2578 216.93 71.9053 216.064C71.5589 215.199 71.3857 214.19 71.3857 213.04C71.3857 211.89 71.5589 210.882 71.9053 210.016C72.2578 209.15 72.7464 208.482 73.3711 208.012C73.9958 207.535 74.7132 207.294 75.5234 207.288ZM75.5234 208.587C74.9854 208.593 74.506 208.782 74.0854 209.153C73.6711 209.518 73.3494 210.037 73.1206 210.711C72.8918 211.379 72.7773 212.156 72.7773 213.04C72.7773 213.924 72.8918 214.704 73.1206 215.378C73.3494 216.046 73.6711 216.562 74.0854 216.927C74.506 217.292 74.9854 217.475 75.5234 217.475C76.0553 217.475 76.5285 217.292 76.9429 216.927C77.3634 216.562 77.6882 216.046 77.917 215.378C78.152 214.704 78.2695 213.924 78.2695 213.04C78.2695 212.156 78.152 211.379 77.917 210.711C77.6882 210.037 77.3665 209.518 76.9521 209.153C76.5378 208.782 76.0615 208.593 75.5234 208.587ZM93.4473 209.552C93.4473 210.282 93.6266 210.984 93.9854 211.658C94.3441 212.326 94.8451 212.913 95.4883 213.42C96.1315 213.921 96.8613 214.302 97.6777 214.562L96.9355 215.73C95.9707 215.403 95.1234 214.914 94.3936 214.265C93.6637 213.615 93.1133 212.854 92.7422 211.982C92.3835 212.923 91.833 213.748 91.0908 214.459C90.3548 215.171 89.4951 215.706 88.5117 216.064L87.751 214.896C88.5674 214.605 89.2972 214.187 89.9404 213.643C90.5837 213.099 91.0846 212.474 91.4434 211.769C91.8021 211.058 91.9814 210.319 91.9814 209.552V208.587H88.1221V207.399H97.251V208.587H93.4473V209.552ZM101.129 218.124H99.6816V206.026H101.129V218.124ZM101.648 222.15H90.4785V216.974H91.9258V220.926H101.648V222.15ZM114.562 210.442C114.556 211.42 114.754 212.391 115.156 213.355C115.558 214.314 116.103 215.168 116.789 215.916C117.476 216.664 118.224 217.221 119.034 217.586L118.144 218.736C117.203 218.272 116.35 217.583 115.583 216.667C114.822 215.746 114.247 214.701 113.857 213.532C113.474 214.775 112.899 215.888 112.132 216.872C111.365 217.849 110.499 218.582 109.534 219.07L108.606 217.846C109.417 217.468 110.165 216.896 110.852 216.129C111.538 215.356 112.085 214.472 112.494 213.476C112.902 212.474 113.109 211.463 113.115 210.442V207.437H114.562V210.442ZM122.3 222.54H120.834V206.008H122.3V222.54ZM130.742 209.552C130.742 210.226 130.922 210.872 131.28 211.491C131.645 212.103 132.146 212.644 132.783 213.114C133.42 213.578 134.144 213.931 134.954 214.172L134.249 215.304C133.29 215.019 132.446 214.577 131.716 213.977C130.986 213.377 130.436 212.672 130.065 211.862C129.706 212.765 129.162 213.556 128.432 214.237C127.708 214.911 126.858 215.409 125.881 215.73L125.176 214.617C125.98 214.345 126.694 213.955 127.319 213.448C127.95 212.935 128.438 212.341 128.785 211.667C129.137 210.993 129.313 210.288 129.313 209.552V209.199H125.584V208.03H129.313V205.934H130.779V208.03H134.472V209.199H130.742V209.552ZM138.795 216.009H137.329V211.945H133.952V210.739H137.329V206.008H138.795V216.009ZM133.321 216.454C134.465 216.454 135.452 216.572 136.281 216.807C137.11 217.042 137.743 217.385 138.183 217.836C138.628 218.282 138.851 218.823 138.851 219.46C138.851 220.091 138.628 220.632 138.183 221.083C137.743 221.535 137.11 221.878 136.281 222.113C135.452 222.348 134.465 222.466 133.321 222.466C132.177 222.466 131.191 222.348 130.362 222.113C129.533 221.878 128.896 221.535 128.451 221.083C128.012 220.632 127.792 220.091 127.792 219.46C127.792 218.823 128.012 218.282 128.451 217.836C128.896 217.385 129.533 217.042 130.362 216.807C131.191 216.572 132.177 216.454 133.321 216.454ZM133.321 217.586C132.48 217.592 131.75 217.669 131.132 217.818C130.52 217.966 130.049 218.183 129.722 218.467C129.394 218.746 129.233 219.076 129.239 219.46C129.233 219.837 129.394 220.168 129.722 220.453C130.056 220.731 130.529 220.944 131.141 221.093C131.76 221.241 132.486 221.315 133.321 221.315C134.162 221.315 134.889 221.241 135.501 221.093C136.114 220.944 136.584 220.731 136.912 220.453C137.239 220.174 137.403 219.843 137.403 219.46C137.403 219.076 137.239 218.746 136.912 218.467C136.59 218.183 136.123 217.966 135.511 217.818C134.898 217.669 134.169 217.592 133.321 217.586ZM159.947 222.503H158.481V206.008H159.947V222.503ZM155.067 207.808C155.055 210.3 154.424 212.539 153.175 214.524C151.925 216.504 149.971 218.13 147.312 219.404L146.514 218.217C148.715 217.172 150.401 215.873 151.57 214.32C152.745 212.768 153.416 210.993 153.583 208.995H147.274V207.808H155.067ZM177.815 216.306H162.712V215.1H169.54V213.355H164.679V209.329H174.401V207.622H164.623V206.435H175.867V210.424H166.126V212.187H176.22V213.355H170.969V215.1H177.815V216.306ZM175.96 222.354H174.494V218.755H164.4V217.567H175.96V222.354ZM186.666 206.305C187.891 206.305 188.939 206.416 189.811 206.639C190.683 206.855 191.348 207.177 191.806 207.604C192.263 208.024 192.492 208.537 192.492 209.144C192.492 210.071 191.985 210.783 190.971 211.277C189.956 211.772 188.521 212.026 186.666 212.038C185.441 212.032 184.39 211.917 183.512 211.695C182.64 211.472 181.972 211.147 181.508 210.721C181.05 210.288 180.821 209.762 180.821 209.144C180.821 208.537 181.05 208.024 181.508 207.604C181.972 207.177 182.64 206.855 183.512 206.639C184.39 206.416 185.441 206.305 186.666 206.305ZM186.666 207.399C185.757 207.399 184.978 207.471 184.328 207.613C183.679 207.749 183.184 207.95 182.844 208.216C182.504 208.476 182.337 208.785 182.343 209.144C182.337 209.713 182.711 210.152 183.465 210.461C184.22 210.77 185.287 210.925 186.666 210.925C188.039 210.925 189.106 210.77 189.867 210.461C190.627 210.152 191.008 209.713 191.008 209.144C191.008 208.785 190.835 208.476 190.488 208.216C190.142 207.956 189.644 207.755 188.995 207.613C188.345 207.471 187.569 207.399 186.666 207.399ZM194.181 214.339H179.151V213.151H194.181V214.339ZM192.251 219.46H182.454V221.167H192.752V222.317H181.007V218.384H190.822V216.881H180.97V215.768H192.251V219.46ZM214.016 215.842H212.55V211.519H209.229V210.312H212.55V206.008H214.016V215.842ZM208.542 216.361C209.686 216.361 210.673 216.482 211.501 216.723C212.33 216.964 212.964 217.314 213.403 217.771C213.849 218.229 214.071 218.78 214.071 219.423C214.071 220.066 213.849 220.617 213.403 221.074C212.964 221.538 212.33 221.891 211.501 222.132C210.673 222.373 209.686 222.497 208.542 222.503C207.398 222.497 206.411 222.373 205.583 222.132C204.754 221.891 204.117 221.538 203.671 221.074C203.232 220.617 203.013 220.066 203.013 219.423C203.013 218.78 203.232 218.229 203.671 217.771C204.117 217.314 204.754 216.964 205.583 216.723C206.411 216.482 207.398 216.361 208.542 216.361ZM208.542 217.493C207.707 217.493 206.98 217.57 206.362 217.725C205.743 217.88 205.27 218.102 204.942 218.393C204.615 218.684 204.454 219.027 204.46 219.423C204.454 219.812 204.615 220.153 204.942 220.443C205.27 220.728 205.743 220.947 206.362 221.102C206.98 221.257 207.707 221.334 208.542 221.334C209.377 221.334 210.101 221.257 210.713 221.102C211.331 220.947 211.805 220.728 212.132 220.443C212.46 220.153 212.624 219.812 212.624 219.423C212.624 219.027 212.46 218.684 212.132 218.393C211.805 218.102 211.331 217.88 210.713 217.725C210.101 217.57 209.377 217.493 208.542 217.493ZM206.074 209.032C206.074 209.743 206.244 210.433 206.584 211.101C206.925 211.763 207.401 212.354 208.013 212.873C208.632 213.386 209.34 213.782 210.138 214.061L209.377 215.229C208.455 214.896 207.645 214.401 206.946 213.745C206.254 213.09 205.731 212.332 205.378 211.472C205.02 212.437 204.472 213.291 203.736 214.033C203.007 214.769 202.153 215.322 201.176 215.693L200.415 214.524C201.225 214.228 201.949 213.801 202.586 213.244C203.223 212.681 203.718 212.035 204.07 211.305C204.429 210.575 204.608 209.824 204.608 209.051V208.438H200.879V207.214H209.767V208.438H206.074V209.032ZM230.381 222.54H228.934V206.008H230.381V222.54ZM225.371 213.411H219.211V217.308C220.689 217.308 222.062 217.264 223.33 217.178C224.604 217.091 225.94 216.937 227.338 216.714L227.486 217.938C226.058 218.167 224.691 218.325 223.386 218.412C222.081 218.492 220.652 218.532 219.1 218.532H217.727V212.224H223.905V208.754H217.689V207.548H225.371V213.411ZM245.948 212.817H248.713V214.023H245.948V222.503H244.501V206.008H245.948V212.817ZM242.905 209.867H233.09V208.661H237.339V206.212H238.786V208.661H242.905V209.867ZM238.081 211.24C238.854 211.24 239.547 211.401 240.159 211.723C240.771 212.044 241.251 212.493 241.597 213.068C241.944 213.643 242.12 214.296 242.126 215.025C242.12 215.755 241.944 216.408 241.597 216.983C241.251 217.558 240.771 218.007 240.159 218.328C239.547 218.65 238.854 218.811 238.081 218.811C237.302 218.811 236.603 218.65 235.984 218.328C235.372 218.007 234.893 217.558 234.546 216.983C234.2 216.408 234.03 215.755 234.036 215.025C234.03 214.296 234.2 213.643 234.546 213.068C234.893 212.493 235.372 212.044 235.984 211.723C236.603 211.401 237.302 211.24 238.081 211.24ZM238.081 212.465C237.574 212.465 237.116 212.576 236.708 212.799C236.306 213.015 235.991 213.318 235.762 213.708C235.533 214.098 235.422 214.537 235.428 215.025C235.422 215.52 235.533 215.962 235.762 216.352C235.991 216.736 236.306 217.035 236.708 217.252C237.116 217.468 237.574 217.574 238.081 217.567C238.582 217.574 239.034 217.468 239.436 217.252C239.838 217.035 240.153 216.736 240.382 216.352C240.611 215.962 240.728 215.52 240.734 215.025C240.728 214.537 240.611 214.098 240.382 213.708C240.153 213.318 239.838 213.015 239.436 212.799C239.034 212.576 238.582 212.465 238.081 212.465ZM262.833 209.329V209.533C262.821 210.894 262.777 212.115 262.703 213.198C262.635 214.274 262.474 215.52 262.221 216.937L260.736 216.77C260.934 215.792 261.076 214.871 261.163 214.005C261.256 213.139 261.312 212.369 261.33 211.695C261.355 211.021 261.367 210.232 261.367 209.329V208.884H251.199V207.678H262.833V209.329ZM264.633 220.165H249.604V218.959H255.504V213.059H256.933V218.959H264.633V220.165ZM267.286 224.804H265.913L266.934 219.757H268.733L267.286 224.804ZM281.889 209.125C281.889 209.669 282.056 210.186 282.39 210.674C282.73 211.157 283.2 211.577 283.8 211.936C284.406 212.289 285.099 212.551 285.878 212.725L285.284 213.894C284.332 213.665 283.503 213.306 282.798 212.817C282.093 212.329 281.558 211.75 281.193 211.083C280.84 211.812 280.305 212.44 279.588 212.966C278.87 213.492 278.023 213.875 277.046 214.116L276.415 212.947C277.201 212.774 277.896 212.499 278.502 212.122C279.115 211.744 279.591 211.296 279.931 210.776C280.271 210.257 280.441 209.706 280.441 209.125V209.051H276.768V207.9H280.441V206.063H281.889V207.9H285.562V209.051H281.889V209.125ZM289.273 222.521H287.845V206.026H289.273V222.521ZM275.636 215.285C277.739 215.285 279.69 215.254 281.49 215.192C283.296 215.124 285.012 214.988 286.639 214.784L286.731 215.842C285.284 216.077 283.682 216.247 281.926 216.352V222.021H280.479V216.426C279.229 216.482 277.683 216.51 275.84 216.51L275.636 215.285ZM307.438 210.108H304.989V212.391H307.438V213.615H304.989V216.658H303.542V206.008H304.989V208.902H307.438V210.108ZM299.775 216.77C300.889 216.77 301.85 216.884 302.661 217.113C303.471 217.335 304.092 217.663 304.525 218.096C304.958 218.523 305.175 219.033 305.175 219.627C305.175 220.221 304.958 220.731 304.525 221.158C304.092 221.584 303.471 221.909 302.661 222.132C301.85 222.354 300.889 222.466 299.775 222.466C298.656 222.466 297.691 222.354 296.881 222.132C296.071 221.909 295.449 221.584 295.016 221.158C294.583 220.731 294.37 220.221 294.376 219.627C294.37 219.033 294.583 218.523 295.016 218.096C295.449 217.663 296.071 217.335 296.881 217.113C297.697 216.884 298.662 216.77 299.775 216.77ZM299.775 217.92C298.532 217.92 297.561 218.068 296.862 218.365C296.163 218.662 295.817 219.083 295.823 219.627C295.817 219.979 295.972 220.286 296.287 220.545C296.603 220.799 297.057 220.994 297.651 221.13C298.251 221.266 298.959 221.334 299.775 221.334C300.592 221.334 301.297 221.266 301.891 221.13C302.484 220.994 302.939 220.799 303.254 220.545C303.57 220.292 303.728 219.986 303.728 219.627C303.728 219.083 303.378 218.662 302.679 218.365C301.986 218.068 301.019 217.92 299.775 217.92ZM301.965 209.051H292.131V207.9H296.324V205.878H297.771V207.9H301.965V209.051ZM297.048 209.904C297.833 209.904 298.523 210.025 299.117 210.266C299.717 210.507 300.181 210.847 300.508 211.287C300.842 211.726 301.012 212.236 301.019 212.817C301.012 213.405 300.842 213.918 300.508 214.357C300.181 214.797 299.717 215.137 299.117 215.378C298.523 215.613 297.833 215.73 297.048 215.73C296.256 215.73 295.557 215.613 294.951 215.378C294.351 215.137 293.887 214.797 293.56 214.357C293.232 213.918 293.071 213.405 293.077 212.817C293.071 212.236 293.232 211.726 293.56 211.287C293.887 210.847 294.351 210.507 294.951 210.266C295.557 210.025 296.256 209.904 297.048 209.904ZM297.048 210.999C296.535 211.005 296.08 211.086 295.684 211.24C295.294 211.389 294.991 211.602 294.775 211.88C294.565 212.153 294.463 212.465 294.469 212.817C294.463 213.17 294.565 213.482 294.775 213.754C294.991 214.02 295.294 214.228 295.684 214.376C296.08 214.524 296.535 214.599 297.048 214.599C297.555 214.599 298.003 214.524 298.393 214.376C298.789 214.228 299.095 214.02 299.312 213.754C299.528 213.482 299.639 213.17 299.646 212.817C299.639 212.465 299.528 212.153 299.312 211.88C299.095 211.602 298.789 211.389 298.393 211.24C298.003 211.086 297.555 211.005 297.048 210.999ZM322.653 222.503H321.243V206.008H322.653V222.503ZM319.332 221.668H317.94V213.652H315.816C315.766 214.716 315.59 215.641 315.287 216.426C314.984 217.206 314.573 217.809 314.053 218.235C313.534 218.656 312.937 218.866 312.263 218.866C311.551 218.866 310.927 218.634 310.389 218.17C309.857 217.7 309.445 217.032 309.155 216.167C308.864 215.301 308.719 214.289 308.719 213.133C308.719 211.976 308.864 210.965 309.155 210.099C309.445 209.233 309.857 208.568 310.389 208.104C310.927 207.634 311.551 207.399 312.263 207.399C312.924 207.399 313.512 207.604 314.025 208.012C314.539 208.42 314.947 209.004 315.25 209.765C315.559 210.526 315.745 211.42 315.807 212.446H317.94V206.36H319.332V221.668ZM312.263 208.772C311.817 208.772 311.431 208.949 311.103 209.301C310.775 209.654 310.522 210.161 310.342 210.823C310.169 211.478 310.086 212.248 310.092 213.133C310.086 214.017 310.169 214.787 310.342 215.443C310.522 216.098 310.775 216.603 311.103 216.955C311.437 217.308 311.824 217.481 312.263 217.475C312.702 217.481 313.085 217.308 313.413 216.955C313.747 216.603 314.004 216.098 314.183 215.443C314.362 214.787 314.452 214.017 314.452 213.133C314.452 212.242 314.362 211.469 314.183 210.813C314.004 210.158 313.75 209.654 313.422 209.301C313.095 208.949 312.708 208.772 312.263 208.772ZM338.035 214.19H330.409V207.14H338.035V214.19ZM331.838 213.003H336.625V208.327H331.838V213.003ZM342.6 209.979H345.086V211.203H342.6V215.434H341.152V206.008H342.6V209.979ZM342.896 217.586H338.211C338.267 218.155 338.545 218.699 339.046 219.219C339.547 219.738 340.194 220.184 340.985 220.555C341.783 220.92 342.631 221.173 343.527 221.315L342.989 222.447C341.758 222.243 340.642 221.854 339.64 221.278C338.638 220.703 337.905 220.01 337.441 219.2C336.984 220.017 336.257 220.709 335.261 221.278C334.272 221.847 333.161 222.231 331.931 222.429L331.374 221.315C332.289 221.173 333.14 220.92 333.925 220.555C334.717 220.19 335.36 219.751 335.855 219.237C336.356 218.718 336.634 218.167 336.69 217.586H332.023V216.398H342.896V217.586ZM359.466 212.187H348.166V206.62H349.613V211.018H359.466V212.187ZM361.21 215.619H346.106V214.432H361.21V215.619ZM359.559 222.095H348.073V217.308H349.521V220.889H359.559V222.095ZM371.062 207.399C371.774 207.399 372.395 207.634 372.927 208.104C373.465 208.568 373.88 209.233 374.17 210.099C374.467 210.965 374.619 211.976 374.625 213.133C374.619 214.289 374.467 215.301 374.17 216.167C373.88 217.032 373.465 217.7 372.927 218.17C372.395 218.634 371.774 218.866 371.062 218.866C370.351 218.866 369.727 218.634 369.188 218.17C368.657 217.7 368.245 217.032 367.955 216.167C367.664 215.301 367.519 214.289 367.519 213.133C367.519 211.976 367.664 210.965 367.955 210.099C368.245 209.233 368.657 208.568 369.188 208.104C369.727 207.634 370.351 207.399 371.062 207.399ZM371.062 208.772C370.617 208.772 370.231 208.949 369.903 209.301C369.575 209.654 369.321 210.161 369.142 210.823C368.969 211.478 368.885 212.248 368.892 213.133C368.885 214.017 368.969 214.787 369.142 215.443C369.321 216.098 369.575 216.603 369.903 216.955C370.237 217.308 370.623 217.481 371.062 217.475C371.502 217.481 371.885 217.308 372.213 216.955C372.547 216.603 372.804 216.098 372.983 215.443C373.162 214.787 373.252 214.017 373.252 213.133C373.252 212.242 373.162 211.469 372.983 210.813C372.804 210.158 372.55 209.654 372.222 209.301C371.894 208.949 371.508 208.772 371.062 208.772ZM381.453 222.503H380.043V213.764H377.742V221.668H376.351V206.36H377.742V212.558H380.043V206.008H381.453V222.503ZM397.336 222.503H395.889V206.008H397.336V222.503ZM386.24 216.992C389.03 216.98 391.658 216.714 394.126 216.194L394.33 217.438C392.926 217.728 391.559 217.938 390.229 218.068C388.9 218.192 387.539 218.254 386.147 218.254H384.812V207.641H386.24V216.992ZM401.9 216.324C401.684 216.324 401.483 216.272 401.297 216.167C401.118 216.055 400.973 215.907 400.861 215.721C400.756 215.536 400.707 215.335 400.713 215.118C400.707 214.908 400.756 214.713 400.861 214.534C400.973 214.348 401.118 214.203 401.297 214.098C401.483 213.986 401.684 213.931 401.9 213.931C402.111 213.931 402.306 213.986 402.485 214.098C402.67 214.203 402.816 214.348 402.921 214.534C403.032 214.713 403.088 214.908 403.088 215.118C403.088 215.335 403.032 215.536 402.921 215.721C402.816 215.907 402.67 216.055 402.485 216.167C402.306 216.272 402.111 216.324 401.9 216.324ZM418.952 216.231H417.561V206.008H418.952V216.231ZM415.965 216.176H414.573V215.229H411.642V214.172H414.573V206.305H415.965V216.176ZM404.888 212.428C406.496 212.428 408.054 212.397 409.563 212.335C411.079 212.273 412.446 212.149 413.664 211.964L413.775 212.947C412.749 213.164 411.53 213.325 410.12 213.43V216.176H408.71V213.513C407.659 213.556 406.44 213.578 405.055 213.578L404.888 212.428ZM409.267 218.384H417.505V216.825H418.952V222.28H407.838V216.825H409.267V218.384ZM417.505 221.111V219.553H409.267V221.111H417.505ZM409.359 206.602C410.077 206.602 410.708 206.701 411.252 206.898C411.796 207.096 412.22 207.381 412.523 207.752C412.826 208.117 412.978 208.55 412.978 209.051C412.978 209.539 412.826 209.969 412.523 210.34C412.22 210.705 411.793 210.987 411.243 211.185C410.698 211.382 410.071 211.481 409.359 211.481C408.648 211.481 408.02 211.382 407.476 211.185C406.932 210.987 406.508 210.705 406.205 210.34C405.908 209.969 405.76 209.539 405.76 209.051C405.76 208.55 405.908 208.117 406.205 207.752C406.508 207.381 406.929 207.096 407.467 206.898C408.011 206.701 408.642 206.602 409.359 206.602ZM409.359 207.659C408.667 207.653 408.116 207.774 407.708 208.021C407.3 208.268 407.096 208.612 407.096 209.051C407.096 209.478 407.297 209.815 407.699 210.062C408.107 210.303 408.66 210.424 409.359 210.424C410.058 210.424 410.615 210.303 411.029 210.062C411.444 209.815 411.654 209.478 411.66 209.051C411.654 208.618 411.444 208.275 411.029 208.021C410.615 207.767 410.058 207.647 409.359 207.659ZM436.486 216.231H429.77V219.274H428.322V216.231H421.383V215.044H436.486V216.231ZM434.798 222.15H423.312V217.734H424.778V220.926H434.798V222.15ZM434.649 213.615H423.387V206.639H434.557V207.808H424.853V209.533H434.111V210.665H424.853V212.446H434.649V213.615ZM456.266 215.786H454.8V213.188H450.94V214.599H443.37V207.27H450.94V208.698H454.8V206.008H456.266V215.786ZM444.817 213.411H449.512V208.457H444.817V213.411ZM450.792 216.269C451.936 216.269 452.923 216.392 453.751 216.64C454.58 216.881 455.214 217.236 455.653 217.707C456.099 218.17 456.321 218.73 456.321 219.386C456.321 220.035 456.099 220.589 455.653 221.046C455.214 221.51 454.58 221.863 453.751 222.104C452.923 222.345 451.936 222.466 450.792 222.466C449.648 222.466 448.661 222.345 447.833 222.104C447.004 221.863 446.367 221.51 445.921 221.046C445.482 220.589 445.263 220.035 445.263 219.386C445.263 218.73 445.482 218.17 445.921 217.707C446.367 217.236 447.004 216.881 447.833 216.64C448.661 216.392 449.648 216.269 450.792 216.269ZM450.792 217.4C449.951 217.407 449.221 217.49 448.603 217.651C447.99 217.806 447.52 218.031 447.192 218.328C446.865 218.625 446.704 218.978 446.71 219.386C446.704 219.775 446.865 220.116 447.192 220.406C447.526 220.697 448 220.92 448.612 221.074C449.23 221.235 449.957 221.315 450.792 221.315C451.627 221.315 452.351 221.235 452.963 221.074C453.575 220.92 454.045 220.7 454.373 220.416C454.707 220.125 454.874 219.782 454.874 219.386C454.874 218.978 454.71 218.625 454.382 218.328C454.055 218.031 453.584 217.806 452.972 217.651C452.36 217.49 451.633 217.407 450.792 217.4ZM454.8 211.964V209.904H450.94V211.964H454.8ZM464.597 209.069C464.597 209.793 464.764 210.489 465.098 211.157C465.438 211.819 465.914 212.406 466.526 212.919C467.139 213.433 467.85 213.832 468.66 214.116L467.918 215.248C466.984 214.914 466.168 214.425 465.469 213.782C464.77 213.133 464.244 212.381 463.892 211.528C463.539 212.456 463.001 213.272 462.277 213.977C461.554 214.676 460.706 215.205 459.735 215.563L458.956 214.432C459.772 214.141 460.499 213.723 461.136 213.179C461.773 212.635 462.268 212.007 462.621 211.296C462.979 210.585 463.162 209.842 463.168 209.069V208.364H459.401V207.177H468.308V208.364H464.597V209.069ZM471.907 210.368H474.394V211.611H471.907V215.953H470.46V206.008H471.907V210.368ZM471.907 222.503H470.46V218.013H461.108V216.825H471.907V222.503ZM482.947 206.305C484.172 206.305 485.22 206.416 486.092 206.639C486.964 206.855 487.629 207.177 488.087 207.604C488.545 208.024 488.773 208.537 488.773 209.144C488.773 210.071 488.266 210.783 487.252 211.277C486.238 211.772 484.803 212.026 482.947 212.038C481.723 212.032 480.671 211.917 479.793 211.695C478.921 211.472 478.253 211.147 477.789 210.721C477.331 210.288 477.103 209.762 477.103 209.144C477.103 208.537 477.331 208.024 477.789 207.604C478.253 207.177 478.921 206.855 479.793 206.639C480.671 206.416 481.723 206.305 482.947 206.305ZM482.947 207.399C482.038 207.399 481.259 207.471 480.609 207.613C479.96 207.749 479.465 207.95 479.125 208.216C478.785 208.476 478.618 208.785 478.624 209.144C478.618 209.713 478.992 210.152 479.747 210.461C480.501 210.77 481.568 210.925 482.947 210.925C484.32 210.925 485.387 210.77 486.148 210.461C486.909 210.152 487.289 209.713 487.289 209.144C487.289 208.785 487.116 208.476 486.77 208.216C486.423 207.956 485.925 207.755 485.276 207.613C484.626 207.471 483.85 207.399 482.947 207.399ZM490.462 214.339H475.433V213.151H490.462V214.339ZM488.532 219.46H478.735V221.167H489.033V222.317H477.288V218.384H487.104V216.881H477.251V215.768H488.532V219.46ZM498.756 209.088H503.562V206.713H505.009V213.894H497.327V206.713H498.756V209.088ZM503.562 212.706V210.22H498.756V212.706H503.562ZM509.518 209.589H512.004V210.813H509.518V214.543H508.07V206.008H509.518V209.589ZM509.518 219.312H500.463V221.13H510.13V222.317H499.034V218.198H508.07V216.491H498.997V215.322H509.518V219.312ZM526.718 218.328H525.252V214.339H520.817V213.133H525.252V210.628H521.04C520.465 211.921 519.568 213.056 518.35 214.033C517.131 215.004 515.672 215.761 513.971 216.306L513.321 215.137C514.614 214.71 515.755 214.169 516.745 213.513C517.734 212.851 518.523 212.097 519.11 211.25C519.698 210.402 520.044 209.49 520.149 208.513H514.138V207.307H521.745C521.745 208.018 521.652 208.729 521.467 209.44H525.252V206.026H526.718V218.328ZM527.145 222.15H516.216V217.104H517.7V220.926H527.145V222.15ZM542.229 212.817H544.994V214.023H542.229V222.503H540.782V206.008H542.229V212.817ZM539.187 209.867H529.371V208.661H533.62V206.212H535.067V208.661H539.187V209.867ZM534.362 211.24C535.135 211.24 535.828 211.401 536.44 211.723C537.053 212.044 537.532 212.493 537.878 213.068C538.225 213.643 538.401 214.296 538.407 215.025C538.401 215.755 538.225 216.408 537.878 216.983C537.532 217.558 537.053 218.007 536.44 218.328C535.828 218.65 535.135 218.811 534.362 218.811C533.583 218.811 532.884 218.65 532.266 218.328C531.653 218.007 531.174 217.558 530.828 216.983C530.481 216.408 530.311 215.755 530.317 215.025C530.311 214.296 530.481 213.643 530.828 213.068C531.174 212.493 531.653 212.044 532.266 211.723C532.884 211.401 533.583 211.24 534.362 211.24ZM534.362 212.465C533.855 212.465 533.397 212.576 532.989 212.799C532.587 213.015 532.272 213.318 532.043 213.708C531.814 214.098 531.703 214.537 531.709 215.025C531.703 215.52 531.814 215.962 532.043 216.352C532.272 216.736 532.587 217.035 532.989 217.252C533.397 217.468 533.855 217.574 534.362 217.567C534.863 217.574 535.315 217.468 535.717 217.252C536.119 217.035 536.434 216.736 536.663 216.352C536.892 215.962 537.009 215.52 537.016 215.025C537.009 214.537 536.892 214.098 536.663 213.708C536.434 213.318 536.119 213.015 535.717 212.799C535.315 212.576 534.863 212.465 534.362 212.465ZM550.783 210.702C550.783 211.58 550.922 212.459 551.201 213.337C551.479 214.215 551.878 215.016 552.397 215.74C552.923 216.463 553.542 217.035 554.253 217.456L553.418 218.588C552.645 218.118 551.974 217.472 551.405 216.649C550.842 215.82 550.409 214.889 550.106 213.856C549.797 214.97 549.342 215.972 548.742 216.862C548.142 217.753 547.437 218.446 546.627 218.94L545.699 217.846C546.441 217.413 547.091 216.822 547.647 216.074C548.204 215.319 548.631 214.481 548.928 213.56C549.225 212.632 549.373 211.698 549.373 210.758V207.566H550.783V210.702ZM560.023 222.503H558.613V206.008H560.023V222.503ZM556.609 221.668H555.236V213.17H552.435V211.927H555.236V206.36H556.609V221.668ZM577.409 220.388H562.306V219.163H566.054V214.71C565.336 214.339 564.78 213.863 564.384 213.281C563.988 212.694 563.79 212.032 563.79 211.296C563.79 210.455 564.047 209.716 564.56 209.079C565.073 208.435 565.785 207.938 566.694 207.585C567.609 207.232 568.651 207.053 569.82 207.047C570.989 207.053 572.028 207.232 572.938 207.585C573.853 207.938 574.567 208.435 575.081 209.079C575.594 209.716 575.851 210.455 575.851 211.296C575.851 212.02 575.659 212.672 575.275 213.253C574.892 213.829 574.354 214.302 573.661 214.673V219.163H577.409V220.388ZM569.82 208.253C568.924 208.247 568.126 208.37 567.427 208.624C566.728 208.878 566.181 209.236 565.785 209.7C565.395 210.158 565.2 210.69 565.2 211.296C565.2 211.902 565.395 212.44 565.785 212.91C566.181 213.374 566.728 213.736 567.427 213.996C568.126 214.249 568.924 214.376 569.82 214.376C570.711 214.376 571.506 214.246 572.205 213.986C572.903 213.727 573.451 213.365 573.847 212.901C574.243 212.437 574.44 211.902 574.44 211.296C574.44 210.69 574.243 210.158 573.847 209.7C573.451 209.236 572.903 208.878 572.205 208.624C571.506 208.37 570.711 208.247 569.82 208.253ZM572.195 219.163V215.239C571.459 215.431 570.668 215.526 569.82 215.526C568.967 215.526 568.188 215.434 567.482 215.248V219.163H572.195ZM580.471 221.111C580.254 221.111 580.053 221.059 579.868 220.954C579.688 220.842 579.543 220.694 579.432 220.508C579.326 220.323 579.277 220.122 579.283 219.905C579.277 219.695 579.326 219.5 579.432 219.321C579.543 219.135 579.688 218.99 579.868 218.885C580.053 218.773 580.254 218.718 580.471 218.718C580.681 218.718 580.876 218.773 581.055 218.885C581.241 218.99 581.386 219.135 581.491 219.321C581.603 219.5 581.658 219.695 581.658 219.905C581.658 220.122 581.603 220.323 581.491 220.508C581.386 220.694 581.241 220.842 581.055 220.954C580.876 221.059 580.681 221.111 580.471 221.111Z" fill="#C6C1E8"/>
</g>
</g>
<defs>
<clipPath id="clip0_650_494">
<rect width="1200" height="315" fill="white"/>
</clipPath>
</defs>
</svg>
